<svg width="180" height="42" viewBox="0 0 180 42" fill="none" xmlns="http://www.w3.org/2000/svg">
<rect width="180" height="42" rx="5" fill="#377BFF"/>
<path d="M29.5402 9.744V14.2128H22.3065V31.92H16.5196V14.2128H9.25233V9.744H29.5402Z" fill="#EAEAEA"/>
<path d="M41.8871 9.408C44.1301 9.408 46.059 9.8672 47.674 10.7856C49.3114 11.6816 50.5674 12.9808 51.4422 14.6832C52.317 16.3856 52.7543 18.4352 52.7543 20.832C52.7543 23.2288 52.317 25.2784 51.4422 26.9808C50.5674 28.6832 49.3114 29.9936 47.674 30.912C46.059 31.808 44.1301 32.256 41.8871 32.256C39.6441 32.256 37.7039 31.808 36.0665 30.912C34.4291 29.9936 33.173 28.6832 32.2983 26.9808C31.4235 25.2784 30.9861 23.2288 30.9861 20.832C30.9861 18.4352 31.4235 16.3856 32.2983 14.6832C33.173 12.9808 34.4291 11.6816 36.0665 10.7856C37.7039 9.8672 39.6441 9.408 41.8871 9.408ZM41.8871 13.944C40.8104 13.944 39.902 14.2016 39.1618 14.7168C38.4216 15.232 37.8609 16.0048 37.4796 17.0352C37.0983 18.0432 36.9076 19.3088 36.9076 20.832C36.9076 22.3328 37.0983 23.5984 37.4796 24.6288C37.8609 25.6592 38.4216 26.432 39.1618 26.9472C39.902 27.4624 40.8104 27.72 41.8871 27.72C42.9637 27.72 43.8609 27.4624 44.5787 26.9472C45.3188 26.432 45.8796 25.6592 46.2609 24.6288C46.6422 23.5984 46.8329 22.3328 46.8329 20.832C46.8329 19.3088 46.6422 18.0432 46.2609 17.0352C45.8796 16.0048 45.3188 15.232 44.5787 14.7168C43.8609 14.2016 42.9637 13.944 41.8871 13.944Z" fill="#EAEAEA"/>
<path d="M66.1553 9.744C69.6319 9.744 72.2898 10.7072 74.1291 12.6336C75.9908 14.56 76.9216 17.2928 76.9216 20.832C76.9216 24.3712 75.9908 27.104 74.1291 29.0304C72.2898 30.9568 69.6319 31.92 66.1553 31.92H56.7347V9.744H66.1553ZM65.5833 27.552C67.4674 27.552 68.8356 26.992 69.688 25.872C70.5627 24.7296 71.0001 23.0496 71.0001 20.832C71.0001 18.6144 70.5627 16.9456 69.688 15.8256C68.8356 14.6832 67.4674 14.112 65.5833 14.112H62.5216V27.552H65.5833Z" fill="#EAEAEA"/>
<path d="M145.468 9.744V31.92H139.681V9.744H145.468Z" fill="#EAEAEA"/>
<path d="M169.065 9.744V14.2128H161.832V31.92H156.045V14.2128H148.778V9.744H169.065Z" fill="#EAEAEA"/>
<path fill-rule="evenodd" clip-rule="evenodd" d="M90.843 32.256C88.6 32.256 86.6598 31.808 85.0224 30.912C83.385 29.9936 82.1289 28.6832 81.2542 26.9808C80.3794 25.2784 79.942 23.2288 79.942 20.832C79.942 18.4352 80.3794 16.3856 81.2542 14.6832C82.1289 12.9808 83.385 11.6816 85.0224 10.7856C86.6598 9.8672 88.6 9.408 90.843 9.408H125.428C125.428 9.408 129.6 9.8672 131.215 10.7856C132.852 11.6816 134.108 12.9808 134.983 14.6832C135.858 16.3856 136.295 18.4352 136.295 20.832C136.295 23.2288 135.858 25.2784 134.983 26.9808C134.108 28.6832 132.852 29.9936 131.215 30.912C129.6 31.808 127.671 32.256 125.428 32.256L90.843 32.256ZM88.1177 14.7168C88.8579 14.2016 89.7663 13.944 90.843 13.944H125.428C126.505 13.944 127.402 14.2016 128.12 14.7168C128.86 15.232 129.421 16.0048 129.802 17.0352C130.183 18.0432 130.374 19.3088 130.374 20.832C130.374 22.3328 130.183 23.5984 129.802 24.6288C129.421 25.6592 128.86 26.432 128.12 26.9472C127.402 27.4624 126.505 27.72 125.428 27.72L90.843 27.72C89.7663 27.72 88.8579 27.4624 88.1177 26.9472C87.3775 26.432 86.8168 25.6592 86.4355 24.6288C86.0542 23.5984 85.8635 22.3328 85.8635 20.832C85.8635 19.3088 86.0542 18.0432 86.4355 17.0352C86.8168 16.0048 87.3775 15.232 88.1177 14.7168Z" fill="#EAEAEA"/>
</svg>
